<svg class="logo logo-abcbs-mono fl--white" version="1.1" viewBox="0 0 120 15.193" x="0" xml:space="preserve" xmlns="http://www.w3.org/2000/svg" y="0"><path d="M6.587 4.94s-.106-.106-.159-.425c-.053-.159 0-.372 0-.372.053-.106 0-.159-.106-.106 0 0-.319.106-.637.319-.532.319-.745.584-.745.584-.106.053-.053.106.053.106h1.541c.106 0 .106-.053.053-.106m.744 3.666l-1.222 1.859c-.053.106-.053.212.053.266 0 0 .372.212 1.275.212s1.328-.212 1.328-.212c.106-.053.106-.159.053-.266L7.543 8.659c-.053-.107-.159-.107-.212-.053"></path><path d="M10.837 4.09V0h-6.8v4.037H0v6.746h4.037v4.09h6.746v-4.037h4.09V4.09h-4.036zm-3.4-.797c1.647 0 3.028.956 3.718 2.337l-2.815.054s-.372 0-.584-.266c-.106-.106-.159-.425 0-.531.159-.159.212-.372.266-.531.053-.212-.319-.531-.478-.531h-.107c-.159 0-.478.319-.478.531 0 .159.106.372.266.531.106.159.106.425 0 .531-.213.266-.585.266-.585.266H3.772C4.356 4.25 5.79 3.293 7.437 3.293M3.293 7.384c0-.478.106-.956.266-1.434l2.869.212s.425.106.425.584c0 .319-.159.425-.159.425l-1.806 3.453a4.101 4.101 0 0 1-1.595-3.24m4.144 4.143c-.85 0-1.594-.266-2.231-.637l1.912-2.922s.159-.266.319-.266.319.266.319.266l1.912 2.922c-.637.425-1.381.637-2.231.637m2.55-.903l-1.806-3.4s-.159-.106-.159-.425c0-.478.425-.584.425-.584l2.762-.319c.159.478.266.956.266 1.487.105 1.329-.532 2.497-1.488 3.241"></path><path d="M9.934 5.046c.106 0 .159-.053.053-.159 0 0-.212-.266-.744-.584l-.637-.319c-.106-.053-.159 0-.106.106 0 0 .053.159 0 .372-.054.372-.16.425-.16.425-.053.053-.053.106.053.106h1.541v.053zm-3.772 1.7L4.25 6.587c-.106 0-.212.053-.212.159 0 0-.159.637-.053 1.116.106 1.275.637 1.7.637 1.7.053.053.159.053.212-.053l1.381-2.55c.053-.106.053-.213-.053-.213m4.515-.159l-1.912.159c-.106 0-.159.106-.106.159l1.381 2.55c.053.106.159.106.212.053 0 0 .531-.425.744-1.7.053-.478-.053-1.116-.053-1.116a.41.41 0 0 0-.266-.105M27.942 0s-1.965 1.328-4.993 1.328C19.867 1.328 17.955 0 17.955 0s-4.515 9.031 4.993 14.874C32.51 9.031 27.942 0 27.942 0m-2.125 10.943c-.691.903-1.594 1.753-2.497 2.337-.212.106-.531.159-.744 0-3.24-2.284-4.834-5.843-4.303-9.774a10.62 10.62 0 0 1 .478-1.859c1.434.797 3.028 1.009 4.781.956 1.328-.106 2.55-.319 3.665-.956 1.063 3.028.585 6.799-1.38 9.296"></path><path d="M26.826 2.55c-2.284.956-5.418.956-7.703 0-1.009 3.825.319 7.649 3.506 10.04.159.053.266.319.425.212 3.347-2.39 4.781-6.321 3.772-10.252m-4.409 1.009c.053-.212.319-.106.319-.106.266 0 .85.106.797.425-.106.584.212.478.212.478l.372-.319c.691-.106.372.531.372.531l-.797.903c-.159-.106-1.169-.159-1.169-.159-.106-.266 0-.159.212-.212.159-.053.372-.212.372-.212s.159.106.319.159c.159.053.159-.053 0-.159-.212-.106-.106-.266-.106-.266s.053-.531-.637-.744c-.372-.053-.319-.16-.266-.319m.372 8.021c-.106.053-.106.319-.106.319-.212.106-.159-.106-.159-.106-.106-.319.212-.691.212-.691s.106.372.053.478m.531.585c-.212.319-.372 0-.372 0l-.053-1.541s.425.212.478.372l-.053 1.169zm.319-1.063c-.106.053-.106-.106-.106-.106 0-.266-.691-.531-.691-.531-1.381-.744-.266-1.381-.266-1.381.159-.106.106.212.106.212.106.478.637.691.637.691.904.478.426 1.062.32 1.115m-.797-2.443l.637.212-.053 1.062c-.425-.266-.584-.531-.584-.531v-.743zm.903 1.168c-.106.053-.159-.053-.159-.053-.053-.425 0-.744 0-.744.106-.053.053-.106.053-.106s-.478-.212-.956-.372c-.478-.159-.637-.319-.637-.319-.425-.691.212-.85.212-.85.106-.053.106 0 .212.266s.266.266.266.266l.637.159c1.169.266 1.169.478 1.169 1.062.053.532-.797.691-.797.691m-1.381-2.921c0-.053.106-.266.266-.212 0 0 .637-.106.903.106 0 0 .053.372 0 .956 0 .106-.106.106-.106.106-.159 0-.478-.106-.691-.159-.053-.054-.425-.744-.372-.797m2.231.053c-.106.903-.903.797-.903.797-.053-.319 0-.744 0-.744.266-.372-.319-.531-1.381-.531-.956 0-1.753-.584-1.7-1.594.053-1.116 1.487-.956 1.487-.956-.053 0 0 0 0 0s-.053.584.478.266c0 0 .266.106.372.319 0 0 .053.212-.159.212-.106 0-.372-.053-.531-.053 0 0-.159 0-.053.053.053.053.372.106.425.159 0 0 .106.159-.372.106-.425-.053-.691-.212-.744-.053-.053.106.159.691 1.222.744.956-.053 1.965.212 1.859 1.275m2.603 7.118a.84.84 0 0 1 .85-.85c.478 0 .85.372.85.85s-.372.85-.85.85-.85-.372-.85-.85m1.593 0a.727.727 0 0 0-.744-.744.727.727 0 0 0-.744.744c0 .425.319.744.744.744a.726.726 0 0 0 .744-.744m-.318.478h-.159l-.266-.425h-.212v.425h-.106v-.956h.425c.266 0 .319.106.319.266 0 .212-.106.266-.319.266l.318.424zm-.425-.531c.159 0 .319 0 .319-.159s-.106-.159-.266-.159h-.266v.319l.213-.001zm-14.874.053c0-.478.372-.85.85-.85s.85.372.85.85-.372.85-.85.85-.85-.372-.85-.85m1.594 0a.727.727 0 0 0-.744-.744.727.727 0 0 0-.744.744c0 .425.319.744.744.744a.727.727 0 0 0 .744-.744m-.319.478h-.159l-.266-.425h-.212v.425h-.106v-.956h.425c.266 0 .319.106.319.266 0 .212-.106.266-.319.266l.318.424zm-.478-.531c.159 0 .319 0 .319-.159s-.106-.159-.266-.159h-.212v.319c-.001-.001.159-.001.159-.001zM64.223 2.975c0 .797.691 1.009 1.381 1.169.691.159 1.381.266 1.381.903 0 .584-.584.85-1.116.85-.584 0-1.169-.212-1.222-.85h-.584c0 .956.903 1.328 1.647 1.328.903 0 1.859-.425 1.859-1.434 0-.478-.266-.85-.744-1.009-1.169-.425-2.019-.372-2.019-1.009 0-.531.478-.691.956-.691.531 0 1.009.159 1.062.744h.584c-.053-.903-.744-1.222-1.594-1.222-.741.052-1.591.318-1.591 1.221m-1.7.637c-.637.053-1.381-.053-1.965.212-.531.212-.903.691-.903 1.275 0 .85.637 1.328 1.434 1.328.584 0 1.169-.372 1.381-.691v-.052.637h.531c0-.319-.053-.637-.053-.956V3.24c0-1.009-.584-1.434-1.541-1.434-.85 0-1.487.319-1.647 1.222h.531c.053-.584.531-.744 1.062-.744.637 0 .956.212 1.009.956v.372h.161zm-2.284 1.434c0-1.116 1.541-.956 2.284-.956.053.903-.159 1.859-1.328 1.859-.531.001-.956-.318-.956-.903m-4.675-2.071c0 .797.691 1.009 1.381 1.169.691.159 1.381.266 1.381.903 0 .584-.584.85-1.116.85-.584 0-1.169-.212-1.222-.85h-.584c0 .956.903 1.328 1.647 1.328.903 0 1.859-.425 1.859-1.434 0-.478-.266-.85-.744-1.009-1.169-.425-2.019-.372-2.019-1.009 0-.531.478-.691.956-.691.531 0 1.009.159 1.062.744h.584c-.053-.903-.744-1.222-1.594-1.222-.741.052-1.591.318-1.591 1.221m-4.196.797c0-.797.372-1.487 1.275-1.487.691 0 1.169.425 1.169 1.222v2.815h.531V3.559c0-.478-.106-1.753-1.541-1.753-.584 0-1.062.266-1.381.797v-.638h-.531c0 .319.053.637.053.956v3.4h.531v-2.55h-.106zm-2.391-.16c-.637.053-1.381-.053-1.965.212-.531.212-.903.691-.903 1.275 0 .85.637 1.328 1.434 1.328.584 0 1.169-.372 1.381-.691v-.052.637h.531c0-.319-.053-.637-.053-.956V3.24c0-1.009-.584-1.434-1.541-1.434-.85 0-1.487.319-1.647 1.222h.531c.053-.584.531-.744 1.062-.744.637 0 .956.212 1.009.956v.372h.161zm-2.284 1.434c0-1.116 1.541-.956 2.284-.956.053.903-.159 1.859-1.328 1.859-.478.001-.956-.318-.956-.903M42.762 0h-.531v6.268h.531V3.931l2.284 2.39h.637l-2.39-2.497 2.231-1.912h-.691l-2.125 1.806V0h.054zm-2.974 3.665c0-.85.425-1.381 1.222-1.381.106 0 .212 0 .319.053v-.531h-.531c-.425 0-.797.319-.956.744v-.638h-.531c0 .319.053.637.053.956v3.4h.531V3.665h-.107zm-6.322 2.603l.637-1.7h3.134l.691 1.7h.637L36.016 0h-.637l-2.497 6.268h.584zm.85-2.231L35.697.531l1.381 3.559-2.762-.053zm82.444 8.871c0-.425.106-1.487.956-1.487.584 0 .956.478.956 1.328 0 .212 0 .691-.212 1.009-.159.266-.425.478-.797.478-.691.054-.903-.584-.903-1.328m1.859-1.753c-.106-.159-.425-.584-1.222-.584-1.169 0-1.912.903-1.912 2.337 0 1.381.691 2.178 1.859 2.178.212 0 .531 0 .85-.212.266-.159.372-.319.425-.478l.053.637H120c0-.159-.053-.478-.053-.691V8.765h-1.275v2.39h-.053zm-5.312 3.878h1.275V8.765h-1.275v6.268zm-3.772-2.656c0-.531.266-1.009.85-1.009.744 0 .744.797.744 1.009h-1.594zm2.922.797c0-.372.053-1.009-.266-1.594a1.96 1.96 0 0 0-1.753-1.062c-.478 0-.903.159-1.222.372-.744.531-.903 1.381-.903 2.072s.159 1.275.584 1.7c.478.478 1.169.531 1.541.531.637 0 1.222-.159 1.541-.531.372-.372.425-.744.425-.956h-1.169c-.106.478-.425.584-.744.584-.903 0-.903-.903-.903-1.169l2.869.053zm-6.428 1.859h1.275v-4.409h-1.275v4.409zm0-5.153h1.381V8.765h-1.381V9.88zm-5.259 5.153h1.275v-2.709c0-.691.478-.903.85-.903.744 0 .744.691.744.956v2.603h1.275v-2.656c0-.584-.106-.956-.266-1.169a1.611 1.611 0 0 0-1.275-.584c-.797 0-1.116.425-1.275.637V8.712h-1.275v6.321h-.053zm-6.109-2.018c0 .584 0 2.178 2.444 2.178 1.753 0 2.656-.903 2.656-2.019 0-1.222-1.062-1.541-2.178-1.806-.903-.212-1.381-.319-1.381-.903 0-.531.425-.85 1.009-.85.956 0 1.009.744 1.009.956h1.275c0-.212 0-.691-.372-1.169-.478-.584-1.222-.744-1.912-.744-1.753 0-2.497.903-2.497 1.965s.797 1.541 2.337 1.912c.797.212 1.169.266 1.169.85 0 .531-.478.903-1.169.903-1.169 0-1.116-.903-1.116-1.169H94.66l.001-.104zm-3.453-.638c0-.531.266-1.009.85-1.009.744 0 .744.797.744 1.009h-1.594zm2.869.797c0-.372.053-1.009-.266-1.594a1.96 1.96 0 0 0-1.753-1.062c-.478 0-.903.159-1.222.372-.744.531-.903 1.381-.903 2.072s.159 1.275.584 1.7c.478.478 1.169.531 1.541.531.637 0 1.222-.159 1.54-.531.372-.372.425-.744.425-.956h-1.169c-.106.478-.425.584-.744.584-.903 0-.903-.903-.903-1.169l2.87.053zm-9.349-2.55v2.709c0 .212 0 .85.266 1.169.266.319.744.584 1.328.584.85 0 1.169-.478 1.275-.691l.053.584h1.275c0-.106 0-.212-.053-.319v-4.037h-1.328v2.231c0 .744 0 1.381-.85 1.381-.691 0-.691-.584-.691-.956v-2.656l-1.275.001zm-2.338 4.409h1.275V8.765H82.39v6.268zm-4.515-2.762h.797c.637 0 1.434 0 1.434.903 0 .85-.691.85-1.328.85h-.903v-1.753zm0-2.55h.903c.425 0 1.116 0 1.116.797s-.691.797-1.062.797h-.956V9.721zM76.6 15.033h2.337c.266 0 1.116 0 1.594-.266s.903-.744.903-1.487c0-.637-.372-1.381-1.328-1.541.372-.106.691-.372.691-.425.319-.319.372-.691.372-.956 0-.372-.106-.956-.691-1.328-.478-.318-1.169-.318-1.54-.318H76.6v6.321zm-7.118-1.275c0 .212.053.531.319.85.425.425.956.531 1.487.531 1.381 0 2.019-.744 2.019-1.487 0-.584-.372-1.009-1.169-1.222l-.797-.212c-.372-.106-.584-.159-.584-.478 0-.266.266-.425.584-.425.212 0 .584.053.637.531h1.169c-.053-.903-.744-1.275-1.647-1.275-1.116 0-1.912.531-1.912 1.381 0 .903.744 1.116 1.116 1.222l.797.212c.478.159.584.319.584.478 0 .266-.212.531-.691.531-.531 0-.691-.319-.744-.584h-1.169l.001-.053zm-4.303 0c0 .212.053.531.319.85.425.425.956.531 1.487.531 1.381 0 2.019-.744 2.019-1.487 0-.584-.372-1.009-1.169-1.222l-.797-.212c-.372-.106-.584-.159-.584-.478 0-.266.266-.425.584-.425.212 0 .584.053.637.531h1.169c-.053-.903-.744-1.275-1.647-1.275-1.116 0-1.912.531-1.912 1.381 0 .903.744 1.116 1.116 1.222l.797.212c.531.159.584.319.584.478 0 .266-.212.531-.691.531-.531 0-.691-.319-.744-.584h-1.169l.001-.053zm-3.878-.85c0-.425 0-1.487.956-1.487.85 0 .956.797.956 1.381 0 1.169-.372 1.487-.956 1.487-.637.001-.956-.424-.956-1.381m-1.328-.053c0 1.541 1.009 2.337 2.231 2.337 1.594 0 2.284-1.116 2.284-2.337s-.691-2.284-2.284-2.284c-1.699-.053-2.231 1.222-2.231 2.284m-2.974 2.178h1.275v-2.178c0-.531.053-1.222 1.381-1.116v-1.116c-1.062-.053-1.328.478-1.487.85v-.85h-1.222c0 .266.053.903.053 1.116v3.294zm-.85-4.249c0-1.275-.956-2.072-2.337-2.072-1.753 0-2.869 1.328-2.869 3.293 0 1.541.691 3.134 2.869 3.134.584 0 1.275-.106 1.859-.691.478-.531.531-1.116.584-1.487h-1.434c0 .85-.584 1.169-1.116 1.169-1.328 0-1.328-1.806-1.328-2.178 0-1.275.425-2.337 1.434-2.337.903 0 1.009.903 1.009 1.116.001-.001 1.329.053 1.329.053zm-8.712 1.593c.053-.531.266-1.009.85-1.009.744 0 .744.797.744 1.009h-1.594zm2.922.797c0-.372.053-1.009-.266-1.594a1.96 1.96 0 0 0-1.753-1.062c-.478 0-.903.159-1.222.372-.744.531-.903 1.381-.903 2.072s.159 1.275.584 1.7c.478.478 1.169.531 1.541.531.637 0 1.222-.159 1.541-.531.372-.372.425-.744.425-.956h-1.169c-.106.478-.425.584-.744.584-.903 0-.903-.903-.903-1.169l2.869.053zm-9.35-2.55v2.709c0 .212 0 .85.266 1.169.266.319.744.584 1.328.584.85 0 1.169-.478 1.275-.691l.053.584h1.275c0-.106 0-.212-.053-.319v-4.037h-1.328v2.231c0 .744 0 1.381-.85 1.381-.691 0-.691-.584-.691-.956v-2.656l-1.275.001zm-2.39 4.409h1.275V8.765h-1.275v6.268zm-4.462-2.762h.797c.637 0 1.434 0 1.434.903 0 .85-.691.85-1.328.85h-.903v-1.753zm0-2.55h.903c.425 0 1.116 0 1.116.797s-.691.797-1.062.797h-.956V9.721zm-1.275 5.312h2.337c.266 0 1.116 0 1.594-.266s.903-.744.903-1.487c0-.637-.372-1.381-1.328-1.541.372-.106.691-.372.691-.425.319-.319.372-.691.372-.956 0-.372-.106-.956-.691-1.328-.478-.319-1.169-.319-1.541-.319h-2.337v6.322z"></path></svg>
